<svg xmlns="http://www.w3.org/2000/svg" xmlns:xlink="http://www.w3.org/1999/xlink" width="500" zoomAndPan="magnify" viewBox="0 0 375 374.999991" height="500" preserveAspectRatio="xMidYMid meet" version="1.0"><defs><g/><clipPath id="2355c0a7f3"><path d="M 52 102 L 86 102 L 86 137 L 52 137 Z M 52 102 " clip-rule="nonzero"/></clipPath><clipPath id="9ff38f83aa"><path d="M 54.488281 137.15625 L 37.460938 116.199219 L 70.058594 89.714844 L 87.085938 110.671875 Z M 54.488281 137.15625 " clip-rule="nonzero"/></clipPath><clipPath id="8a82e943b3"><path d="M 54.488281 137.15625 L 37.460938 116.199219 L 70.058594 89.714844 L 87.085938 110.671875 Z M 54.488281 137.15625 " clip-rule="nonzero"/></clipPath><clipPath id="9001f6d0d0"><path d="M 54.496094 137.148438 L 37.507812 116.234375 L 69.851562 89.957031 L 86.839844 110.871094 Z M 54.496094 137.148438 " clip-rule="nonzero"/></clipPath></defs><rect x="-37.5" width="450" fill="#ffffff" y="-37.499999" height="449.999989" fill-opacity="1"/><rect x="-37.5" width="450" fill="#ffffff" y="-37.499999" height="449.999989" fill-opacity="1"/><g clip-path="url(#2355c0a7f3)"><g clip-path="url(#9ff38f83aa)"><g clip-path="url(#8a82e943b3)"><g clip-path="url(#9001f6d0d0)"><path fill="#f29f05" d="M 52.921875 104.679688 L 52.746094 134.226562 C 52.734375 136.449219 55.773438 137.105469 56.675781 135.074219 L 64.382812 117.746094 C 64.648438 117.148438 65.183594 116.714844 65.824219 116.574219 L 84.363281 112.578125 C 86.539062 112.109375 86.519531 109 84.339844 108.558594 L 55.382812 102.679688 C 54.113281 102.421875 52.929688 103.386719 52.921875 104.679688 " fill-opacity="1" fill-rule="nonzero"/></g></g></g></g><g fill="#1f1f1f" fill-opacity="1"><g transform="translate(65.927235, 191.088206)"><g><path d="M 4.734375 -65 L 28.4375 -65 C 35.050781 -65 40.40625 -63.289062 44.5 -59.875 C 48.601562 -56.457031 50.65625 -51.492188 50.65625 -44.984375 C 50.65625 -38.472656 48.578125 -33.363281 44.421875 -29.65625 C 40.273438 -25.957031 34.945312 -24.109375 28.4375 -24.109375 L 19.53125 -24.109375 L 19.53125 0 L 4.734375 0 Z M 19.53125 -35.921875 L 23.71875 -35.921875 C 27.019531 -35.921875 29.734375 -36.585938 31.859375 -37.921875 C 33.992188 -39.265625 35.0625 -41.460938 35.0625 -44.515625 C 35.0625 -47.609375 33.992188 -49.820312 31.859375 -51.15625 C 29.734375 -52.5 27.019531 -53.171875 23.71875 -53.171875 L 19.53125 -53.171875 Z M 19.53125 -35.921875 "/></g></g></g><g fill="#1f1f1f" fill-opacity="1"><g transform="translate(114.758088, 191.088206)"><g><path d="M 8.546875 -4.796875 C 4.054688 -8.796875 1.8125 -13.921875 1.8125 -20.171875 C 1.8125 -26.421875 4.144531 -31.550781 8.8125 -35.5625 C 13.488281 -39.582031 19.269531 -41.59375 26.15625 -41.59375 C 32.925781 -41.59375 38.632812 -39.570312 43.28125 -35.53125 C 47.9375 -31.488281 50.265625 -26.367188 50.265625 -20.171875 C 50.265625 -13.972656 47.992188 -8.863281 43.453125 -4.84375 C 38.910156 -0.820312 33.144531 1.1875 26.15625 1.1875 C 18.90625 1.1875 13.035156 -0.804688 8.546875 -4.796875 Z M 19.34375 -27.015625 C 17.53125 -25.234375 16.625 -22.953125 16.625 -20.171875 C 16.625 -17.390625 17.488281 -15.117188 19.21875 -13.359375 C 20.957031 -11.597656 23.242188 -10.71875 26.078125 -10.71875 C 28.804688 -10.71875 31.050781 -11.609375 32.8125 -13.390625 C 34.570312 -15.179688 35.453125 -17.441406 35.453125 -20.171875 C 35.453125 -22.953125 34.546875 -25.234375 32.734375 -27.015625 C 30.921875 -28.804688 28.703125 -29.703125 26.078125 -29.703125 C 23.398438 -29.703125 21.15625 -28.804688 19.34375 -27.015625 Z M 19.34375 -27.015625 "/></g></g></g><g fill="#1f1f1f" fill-opacity="1"><g transform="translate(163.195121, 191.088206)"><g><path d="M 4.734375 0 L 4.734375 -40.421875 L 18.671875 -40.421875 L 18.671875 -36.15625 L 18.828125 -36.15625 C 22.453125 -39.78125 26.3125 -41.59375 30.40625 -41.59375 C 32.40625 -41.59375 34.390625 -41.328125 36.359375 -40.796875 C 38.328125 -40.273438 40.21875 -39.460938 42.03125 -38.359375 C 43.84375 -37.265625 45.3125 -35.703125 46.4375 -33.671875 C 47.570312 -31.648438 48.140625 -29.300781 48.140625 -26.625 L 48.140625 0 L 34.1875 0 L 34.1875 -22.84375 C 34.1875 -24.945312 33.515625 -26.785156 32.171875 -28.359375 C 30.835938 -29.929688 29.09375 -30.71875 26.9375 -30.71875 C 24.84375 -30.71875 22.941406 -29.90625 21.234375 -28.28125 C 19.523438 -26.65625 18.671875 -24.84375 18.671875 -22.84375 L 18.671875 0 Z M 4.734375 0 "/></g></g></g><g fill="#1f1f1f" fill-opacity="1"><g transform="translate(211.632161, 191.088206)"><g><path d="M 7.09375 -40.421875 L 7.09375 -55.46875 L 21.03125 -55.46875 L 21.03125 -40.421875 L 29.546875 -40.421875 L 29.546875 -29.78125 L 21.03125 -29.78125 L 21.03125 -16.9375 C 21.03125 -13.207031 22.082031 -11.34375 24.1875 -11.34375 C 24.707031 -11.34375 25.253906 -11.445312 25.828125 -11.65625 C 26.410156 -11.863281 26.859375 -12.078125 27.171875 -12.296875 L 27.65625 -12.609375 L 31.125 -1.34375 C 28.125 0.34375 24.707031 1.1875 20.875 1.1875 C 18.25 1.1875 15.988281 0.726562 14.09375 -0.1875 C 12.207031 -1.113281 10.773438 -2.347656 9.796875 -3.890625 C 8.828125 -5.441406 8.132812 -7.070312 7.71875 -8.78125 C 7.300781 -10.488281 7.09375 -12.316406 7.09375 -14.265625 L 7.09375 -29.78125 L 1.265625 -29.78125 L 1.265625 -40.421875 Z M 7.09375 -40.421875 "/></g></g></g><g fill="#1f1f1f" fill-opacity="1"><g transform="translate(239.118721, 191.088206)"><g><path d="M 7.484375 -5 C 3.703125 -9.125 1.8125 -14.179688 1.8125 -20.171875 C 1.8125 -26.160156 3.703125 -31.226562 7.484375 -35.375 C 11.265625 -39.519531 16.070312 -41.59375 21.90625 -41.59375 C 27.257812 -41.59375 31.671875 -39.910156 35.140625 -36.546875 L 35.140625 -40.421875 L 49.078125 -40.421875 L 49.078125 0 L 35.296875 0 L 35.296875 -4.5625 L 35.140625 -4.5625 C 31.671875 -0.726562 27.257812 1.1875 21.90625 1.1875 C 16.070312 1.1875 11.265625 -0.875 7.484375 -5 Z M 19.34375 -27.015625 C 17.53125 -25.234375 16.625 -22.953125 16.625 -20.171875 C 16.625 -17.390625 17.488281 -15.117188 19.21875 -13.359375 C 20.957031 -11.597656 23.242188 -10.71875 26.078125 -10.71875 C 28.804688 -10.71875 31.050781 -11.609375 32.8125 -13.390625 C 34.570312 -15.179688 35.453125 -17.441406 35.453125 -20.171875 C 35.453125 -22.953125 34.546875 -25.234375 32.734375 -27.015625 C 30.921875 -28.804688 28.703125 -29.703125 26.078125 -29.703125 C 23.398438 -29.703125 21.15625 -28.804688 19.34375 -27.015625 Z M 19.34375 -27.015625 "/></g></g></g><g fill="#1f1f1f" fill-opacity="1"><g transform="translate(289.288506, 191.088206)"><g><path d="M 4.734375 0 L 4.734375 -67.75 L 18.671875 -67.75 L 18.671875 0 Z M 4.734375 0 "/></g></g></g><g fill="#1f1f1f" fill-opacity="1"><g transform="translate(309.060669, 191.088206)"><g/></g></g><g fill="#f29f05" fill-opacity="1"><g transform="translate(68.279904, 242.460541)"><g><path d="M 5.828125 -3.890625 C 2.878906 -7.109375 1.40625 -11.046875 1.40625 -15.703125 C 1.40625 -20.367188 2.878906 -24.316406 5.828125 -27.546875 C 8.773438 -30.773438 12.519531 -32.390625 17.0625 -32.390625 C 21.226562 -32.390625 24.660156 -31.082031 27.359375 -28.46875 L 27.359375 -52.765625 L 38.234375 -52.765625 L 38.234375 0 L 27.484375 0 L 27.484375 -3.5625 L 27.359375 -3.5625 C 24.660156 -0.570312 21.226562 0.921875 17.0625 0.921875 C 12.519531 0.921875 8.773438 -0.679688 5.828125 -3.890625 Z M 15.0625 -21.03125 C 13.65625 -19.644531 12.953125 -17.867188 12.953125 -15.703125 C 12.953125 -13.535156 13.625 -11.765625 14.96875 -10.390625 C 16.320312 -9.023438 18.101562 -8.34375 20.3125 -8.34375 C 22.4375 -8.34375 24.179688 -9.035156 25.546875 -10.421875 C 26.921875 -11.816406 27.609375 -13.578125 27.609375 -15.703125 C 27.609375 -17.867188 26.898438 -19.644531 25.484375 -21.03125 C 24.078125 -22.425781 22.351562 -23.125 20.3125 -23.125 C 18.226562 -23.125 16.476562 -22.425781 15.0625 -21.03125 Z M 15.0625 -21.03125 "/></g></g></g><g fill="#f29f05" fill-opacity="1"><g transform="translate(107.345985, 242.460541)"><g><path d="M 35.53125 -14.234375 L 12.703125 -14.234375 C 12.703125 -12.023438 13.414062 -10.390625 14.84375 -9.328125 C 16.28125 -8.265625 17.835938 -7.734375 19.515625 -7.734375 C 21.273438 -7.734375 22.664062 -7.96875 23.6875 -8.4375 C 24.707031 -8.90625 25.875 -9.835938 27.1875 -11.234375 L 35.03125 -7.296875 C 31.757812 -1.816406 26.320312 0.921875 18.71875 0.921875 C 13.96875 0.921875 9.894531 -0.703125 6.5 -3.953125 C 3.101562 -7.203125 1.40625 -11.117188 1.40625 -15.703125 C 1.40625 -20.285156 3.101562 -24.210938 6.5 -27.484375 C 9.894531 -30.753906 13.96875 -32.390625 18.71875 -32.390625 C 23.707031 -32.390625 27.765625 -30.945312 30.890625 -28.0625 C 34.023438 -25.1875 35.59375 -21.066406 35.59375 -15.703125 C 35.59375 -14.972656 35.570312 -14.484375 35.53125 -14.234375 Z M 13.015625 -20.25 L 24.96875 -20.25 C 24.726562 -21.882812 24.082031 -23.140625 23.03125 -24.015625 C 21.988281 -24.898438 20.648438 -25.34375 19.015625 -25.34375 C 17.222656 -25.34375 15.789062 -24.867188 14.71875 -23.921875 C 13.65625 -22.984375 13.085938 -21.757812 13.015625 -20.25 Z M 13.015625 -20.25 "/></g></g></g><g fill="#f29f05" fill-opacity="1"><g transform="translate(141.505506, 242.460541)"><g><path d="M 3.6875 0 L 3.6875 -52.765625 L 14.546875 -52.765625 L 14.546875 0 Z M 3.6875 0 "/></g></g></g><g fill="#f29f05" fill-opacity="1"><g transform="translate(156.897491, 242.460541)"><g><path d="M 4.71875 -49.015625 C 5.988281 -50.285156 7.503906 -50.921875 9.265625 -50.921875 C 11.023438 -50.921875 12.535156 -50.285156 13.796875 -49.015625 C 15.066406 -47.753906 15.703125 -46.242188 15.703125 -44.484375 C 15.703125 -42.722656 15.066406 -41.207031 13.796875 -39.9375 C 12.535156 -38.675781 11.023438 -38.046875 9.265625 -38.046875 C 7.503906 -38.046875 5.988281 -38.675781 4.71875 -39.9375 C 3.457031 -41.207031 2.828125 -42.722656 2.828125 -44.484375 C 2.828125 -46.242188 3.457031 -47.753906 4.71875 -49.015625 Z M 3.6875 -31.484375 L 3.6875 0 L 14.546875 0 L 14.546875 -31.484375 Z M 3.6875 -31.484375 "/></g></g></g><g fill="#f29f05" fill-opacity="1"><g transform="translate(172.596128, 242.460541)"><g><path d="M 11.65625 -31.484375 L 19.328125 -14.359375 L 27 -31.484375 L 39.890625 -31.484375 L 23.015625 0 L 15.640625 0 L -1.234375 -31.484375 Z M 11.65625 -31.484375 "/></g></g></g><g fill="#f29f05" fill-opacity="1"><g transform="translate(208.41163, 242.460541)"><g><path d="M 35.53125 -14.234375 L 12.703125 -14.234375 C 12.703125 -12.023438 13.414062 -10.390625 14.84375 -9.328125 C 16.28125 -8.265625 17.835938 -7.734375 19.515625 -7.734375 C 21.273438 -7.734375 22.664062 -7.96875 23.6875 -8.4375 C 24.707031 -8.90625 25.875 -9.835938 27.1875 -11.234375 L 35.03125 -7.296875 C 31.757812 -1.816406 26.320312 0.921875 18.71875 0.921875 C 13.96875 0.921875 9.894531 -0.703125 6.5 -3.953125 C 3.101562 -7.203125 1.40625 -11.117188 1.40625 -15.703125 C 1.40625 -20.285156 3.101562 -24.210938 6.5 -27.484375 C 9.894531 -30.753906 13.96875 -32.390625 18.71875 -32.390625 C 23.707031 -32.390625 27.765625 -30.945312 30.890625 -28.0625 C 34.023438 -25.1875 35.59375 -21.066406 35.59375 -15.703125 C 35.59375 -14.972656 35.570312 -14.484375 35.53125 -14.234375 Z M 13.015625 -20.25 L 24.96875 -20.25 C 24.726562 -21.882812 24.082031 -23.140625 23.03125 -24.015625 C 21.988281 -24.898438 20.648438 -25.34375 19.015625 -25.34375 C 17.222656 -25.34375 15.789062 -24.867188 14.71875 -23.921875 C 13.65625 -22.984375 13.085938 -21.757812 13.015625 -20.25 Z M 13.015625 -20.25 "/></g></g></g><g fill="#f29f05" fill-opacity="1"><g transform="translate(242.571155, 242.460541)"><g><path d="M 3.6875 0 L 3.6875 -31.484375 L 14.546875 -31.484375 L 14.546875 -26.9375 L 14.671875 -26.9375 C 14.742188 -27.101562 14.875 -27.304688 15.0625 -27.546875 C 15.25 -27.796875 15.648438 -28.226562 16.265625 -28.84375 C 16.878906 -29.457031 17.53125 -30.007812 18.21875 -30.5 C 18.914062 -30.988281 19.816406 -31.425781 20.921875 -31.8125 C 22.023438 -32.195312 23.148438 -32.390625 24.296875 -32.390625 C 25.484375 -32.390625 26.648438 -32.226562 27.796875 -31.90625 C 28.941406 -31.582031 29.78125 -31.253906 30.3125 -30.921875 L 31.171875 -30.4375 L 26.625 -21.234375 C 25.28125 -22.378906 23.398438 -22.953125 20.984375 -22.953125 C 19.671875 -22.953125 18.546875 -22.664062 17.609375 -22.09375 C 16.671875 -21.519531 16.003906 -20.820312 15.609375 -20 C 15.222656 -19.1875 14.945312 -18.492188 14.78125 -17.921875 C 14.625 -17.347656 14.546875 -16.894531 14.546875 -16.5625 L 14.546875 0 Z M 3.6875 0 "/></g></g></g><g fill="#f29f05" fill-opacity="1"><g transform="translate(270.290846, 242.460541)"><g><path d="M 27.546875 -31.484375 L 40.0625 -31.484375 L 15.34375 15.953125 L 2.828125 15.953125 L 13.6875 -4.90625 L -1.234375 -31.484375 L 11.296875 -31.484375 L 20.0625 -15.34375 Z M 27.546875 -31.484375 "/></g></g></g></svg>